<svg width="42" height="42" viewBox="0 0 42 42" fill="none" xmlns="http://www.w3.org/2000/svg">
<g id="mingcute:transfer-line" clip-path="url(#clip0_806_1181)">
<g id="Group">
<path id="Vector" d="M35 24.5C35.4461 24.5005 35.8751 24.6713 36.1994 24.9775C36.5237 25.2837 36.7189 25.7022 36.7451 26.1474C36.7712 26.5927 36.6263 27.0312 36.3401 27.3732C36.0538 27.7153 35.6477 27.9351 35.2048 27.9878L35 28H11.2245L15.2373 32.0128C15.5511 32.3277 15.7333 32.7503 15.7469 33.1947C15.7605 33.6391 15.6044 34.072 15.3103 34.4055C15.0163 34.739 14.6063 34.948 14.1637 34.9902C13.7211 35.0324 13.279 34.9045 12.9273 34.6325L12.7628 34.4873L6.06026 27.7848C4.89651 26.6228 5.64201 24.6645 7.22051 24.5105L7.42176 24.5H35ZM26.7628 7.51275C27.0641 7.21144 27.465 7.03044 27.8903 7.0037C28.3156 6.97695 28.7361 7.10631 29.0728 7.3675L29.2373 7.51275L35.9398 14.2153C37.1035 15.3773 36.358 17.3355 34.7795 17.4895L34.5783 17.5H7.00001C6.55398 17.4995 6.12496 17.3287 5.80062 17.0225C5.47628 16.7163 5.2811 16.2978 5.25496 15.8526C5.22882 15.4073 5.37369 14.9688 5.65998 14.6268C5.94626 14.2848 6.35235 14.0649 6.79526 14.0123L7.00001 14H30.7755L26.7628 9.98725C26.4347 9.65908 26.2504 9.21404 26.2504 8.75C26.2504 8.28596 26.4347 7.84093 26.7628 7.51275Z" fill="#EAAA00"/>
</g>
</g>
<defs>
<clipPath id="clip0_806_1181">
<rect width="42" height="42" fill="white"/>
</clipPath>
</defs>
</svg>
