<svg width="24" height="24" viewBox="0 0 24 24" fill="none" xmlns="http://www.w3.org/2000/svg">
<g id="basil:home-outline">
<path id="Vector" fill-rule="evenodd" clip-rule="evenodd" d="M13.558 5.53405C13.139 5.13191 12.5808 4.90736 12 4.90736C11.4193 4.90736 10.861 5.13191 10.442 5.53405L5.81602 9.97405C5.70262 10.0828 5.62635 10.2245 5.59802 10.379C5.044 13.4006 5.0031 16.4939 5.47702 19.529L5.58902 20.25H8.56602V14.039C8.56602 13.8401 8.64504 13.6494 8.78569 13.5087C8.92634 13.3681 9.11711 13.289 9.31602 13.289H14.684C14.8829 13.289 15.0737 13.3681 15.2143 13.5087C15.355 13.6494 15.434 13.8401 15.434 14.039V20.25H18.411L18.523 19.53C18.9976 16.4943 18.957 13.4003 18.403 10.378C18.3742 10.2237 18.2976 10.0824 18.184 9.97405L13.558 5.53405ZM9.40402 4.45205C10.1023 3.78221 11.0324 3.4082 12 3.4082C12.9676 3.4082 13.8978 3.78221 14.596 4.45205L19.223 8.89205C19.563 9.21805 19.793 9.64405 19.878 10.108C20.462 13.2958 20.505 16.5591 20.005 19.761L19.825 20.918C19.789 21.1499 19.6712 21.3612 19.4929 21.5138C19.3146 21.6664 19.0877 21.7502 18.853 21.75H14.684C14.4851 21.75 14.2943 21.671 14.1537 21.5304C14.013 21.3897 13.934 21.199 13.934 21V14.789H10.066V21C10.066 21.199 9.987 21.3897 9.84635 21.5304C9.7057 21.671 9.51493 21.75 9.31602 21.75H5.14702C4.91237 21.7502 4.6854 21.6664 4.50713 21.5138C4.32887 21.3612 4.21106 21.1499 4.17502 20.918L3.99502 19.761C3.49507 16.5591 3.53801 13.2958 4.12202 10.108C4.20702 9.64405 4.43702 9.21805 4.77702 8.89105L9.40402 4.45205Z" fill="black"/>
</g>
</svg>
