<svg width="95" height="99" viewBox="0 0 95 99" fill="none" xmlns="http://www.w3.org/2000/svg">
<g id="ep:lock">
<path id="Vector" d="M20.7812 43.3125C19.9939 43.3125 19.2388 43.6384 18.682 44.2186C18.1253 44.7988 17.8125 45.5857 17.8125 46.4062V83.5312C17.8125 84.3518 18.1253 85.1387 18.682 85.7189C19.2388 86.2991 19.9939 86.625 20.7812 86.625H74.2188C75.0061 86.625 75.7612 86.2991 76.318 85.7189C76.8747 85.1387 77.1875 84.3518 77.1875 83.5312V46.4062C77.1875 45.5857 76.8747 44.7988 76.318 44.2186C75.7612 43.6384 75.0061 43.3125 74.2188 43.3125H20.7812ZM20.7812 37.125H74.2188C76.5808 37.125 78.8462 38.1028 80.5164 39.8434C82.1867 41.584 83.125 43.9447 83.125 46.4062V83.5312C83.125 85.9928 82.1867 88.3535 80.5164 90.0941C78.8462 91.8347 76.5808 92.8125 74.2188 92.8125H20.7812C18.4192 92.8125 16.1538 91.8347 14.4836 90.0941C12.8133 88.3535 11.875 85.9928 11.875 83.5312V46.4062C11.875 43.9447 12.8133 41.584 14.4836 39.8434C16.1538 38.1028 18.4192 37.125 20.7812 37.125Z" fill="#EAAA00"/>
<path id="Vector_2" d="M47.5 52.5938C48.2874 52.5938 49.0425 52.9197 49.5992 53.4999C50.156 54.0801 50.4688 54.867 50.4688 55.6875V74.25C50.4688 75.0705 50.156 75.8574 49.5992 76.4376C49.0425 77.0178 48.2874 77.3438 47.5 77.3438C46.7126 77.3438 45.9575 77.0178 45.4008 76.4376C44.844 75.8574 44.5312 75.0705 44.5312 74.25V55.6875C44.5312 54.867 44.844 54.0801 45.4008 53.4999C45.9575 52.9197 46.7126 52.5938 47.5 52.5938ZM65.3125 37.125V30.9375C65.3125 26.0144 63.4358 21.293 60.0953 17.8118C56.7548 14.3307 52.2242 12.375 47.5 12.375C42.7758 12.375 38.2452 14.3307 34.9047 17.8118C31.5642 21.293 29.6875 26.0144 29.6875 30.9375V37.125H65.3125ZM47.5 6.1875C53.7989 6.1875 59.8398 8.79508 64.2938 13.4366C68.7478 18.0781 71.25 24.3734 71.25 30.9375V43.3125H23.75V30.9375C23.75 24.3734 26.2522 18.0781 30.7062 13.4366C35.1602 8.79508 41.2011 6.1875 47.5 6.1875Z" fill="#EAAA00"/>
</g>
</svg>
