<svg width="24" height="24" viewBox="0 0 24 24" fill="none" xmlns="http://www.w3.org/2000/svg">
<g id="solar:shop-minimalistic-bold">
<path id="Vector" d="M19 14.25C19.1989 14.25 19.3897 14.329 19.5303 14.4697C19.671 14.6103 19.75 14.8011 19.75 15V21.25H21C21.1989 21.25 21.3897 21.329 21.5303 21.4697C21.671 21.6103 21.75 21.8011 21.75 22C21.75 22.1989 21.671 22.3897 21.5303 22.5303C21.3897 22.671 21.1989 22.75 21 22.75H3.00001C2.8011 22.75 2.61033 22.671 2.46968 22.5303C2.32903 22.3897 2.25001 22.1989 2.25001 22C2.25001 21.8011 2.32903 21.6103 2.46968 21.4697C2.61033 21.329 2.8011 21.25 3.00001 21.25H4.25001V15C4.25001 14.8011 4.32903 14.6103 4.46968 14.4697C4.61033 14.329 4.8011 14.25 5.00001 14.25C5.19892 14.25 5.38969 14.329 5.53034 14.4697C5.67099 14.6103 5.75001 14.8011 5.75001 15V21.25H18.25V15C18.25 14.8011 18.329 14.6103 18.4697 14.4697C18.6103 14.329 18.8011 14.25 19 14.25ZM16.528 2H7.47201C6.26901 2 5.66801 2 5.18501 2.299C4.70101 2.597 4.43201 3.135 3.89501 4.211L2.49001 7.76C2.16601 8.58 1.88201 9.546 2.42801 10.239C2.68523 10.566 3.03803 10.8047 3.43728 10.9218C3.83653 11.0388 4.26235 11.0285 4.65543 10.8921C5.04851 10.7558 5.38929 10.5002 5.63029 10.1611C5.8713 9.82192 6.00054 9.41606 6.00001 9C6.00001 9.53043 6.21072 10.0391 6.58579 10.4142C6.96087 10.7893 7.46957 11 8.00001 11C8.53044 11 9.03915 10.7893 9.41422 10.4142C9.78929 10.0391 10 9.53043 10 9C10 9.53043 10.2107 10.0391 10.5858 10.4142C10.9609 10.7893 11.4696 11 12 11C12.5304 11 13.0391 10.7893 13.4142 10.4142C13.7893 10.0391 14 9.53043 14 9C14 9.53043 14.2107 10.0391 14.5858 10.4142C14.9609 10.7893 15.4696 11 16 11C16.5304 11 17.0391 10.7893 17.4142 10.4142C17.7893 10.0391 18 9.53043 18 9C18 9.41573 18.1294 9.82114 18.3705 10.1599C18.6115 10.4986 18.9521 10.7538 19.3449 10.8899C19.7377 11.0261 20.1631 11.0365 20.5621 10.9197C20.9611 10.8028 21.3137 10.5646 21.571 10.238C22.117 9.545 21.833 8.579 21.509 7.759L20.105 4.211C19.568 3.135 19.299 2.597 18.815 2.299C18.332 2 17.731 2 16.528 2Z" fill="black"/>
</g>
</svg>
